<svg xmlns="http://www.w3.org/2000/svg" width="100.944" height="19.705" viewBox="0 0 100.944 19.705">
  <g id="Grupo_1" data-name="Grupo 1" transform="translate(-338.654 -302.88)">
    <path id="Trazado_1" data-name="Trazado 1" d="M355.023,305.617l-6.145,16.752H344.8l-6.144-16.752h3.6l4.608,13.32,4.584-13.32Z" fill="#eee"/>
    <path id="Trazado_2" data-name="Trazado 2" d="M356.979,312.1a5.887,5.887,0,0,1,2.183-2.4,5.815,5.815,0,0,1,3.084-.84,5.415,5.415,0,0,1,2.6.6,5.293,5.293,0,0,1,1.788,1.511v-1.895h3.385v13.3h-3.385v-1.945a4.98,4.98,0,0,1-1.788,1.548,5.471,5.471,0,0,1-2.628.613,5.651,5.651,0,0,1-3.06-.865,6.028,6.028,0,0,1-2.183-2.435,7.812,7.812,0,0,1-.8-3.613A7.689,7.689,0,0,1,356.979,312.1Zm9.179,1.525a3.378,3.378,0,0,0-1.3-1.344,3.454,3.454,0,0,0-1.752-.468,3.4,3.4,0,0,0-1.728.456A3.445,3.445,0,0,0,360.1,313.6a4.177,4.177,0,0,0-.491,2.076,4.314,4.314,0,0,0,.491,2.1,3.538,3.538,0,0,0,1.3,1.38,3.285,3.285,0,0,0,1.715.479,3.463,3.463,0,0,0,1.752-.467,3.384,3.384,0,0,0,1.3-1.344,4.834,4.834,0,0,0,0-4.2Z" fill="#eee"/>
    <path id="Trazado_3" data-name="Trazado 3" d="M376.67,304.609v17.76h-3.36v-17.76Z" fill="#eee"/>
    <path id="Trazado_4" data-name="Trazado 4" d="M392.246,316.729h-9.72a3.305,3.305,0,0,0,1.008,2.256,3.107,3.107,0,0,0,2.184.815,2.743,2.743,0,0,0,2.664-1.607h3.624a6.057,6.057,0,0,1-2.208,3.156,6.446,6.446,0,0,1-4.008,1.236,6.946,6.946,0,0,1-3.444-.852,6,6,0,0,1-2.376-2.412,7.392,7.392,0,0,1-.852-3.6,7.534,7.534,0,0,1,.84-3.624,5.865,5.865,0,0,1,2.352-2.4,7.556,7.556,0,0,1,6.876-.025,5.745,5.745,0,0,1,2.328,2.317,7.006,7.006,0,0,1,.828,3.444A7.939,7.939,0,0,1,392.246,316.729Zm-3.384-2.257a2.664,2.664,0,0,0-.936-2.075,3.316,3.316,0,0,0-2.232-.78,3.05,3.05,0,0,0-2.1.756,3.324,3.324,0,0,0-1.044,2.1Z" fill="#eee"/>
    <path id="Trazado_5" data-name="Trazado 5" d="M406,310.38a5.745,5.745,0,0,1,1.464,4.189v7.8H404.1v-7.344a3.45,3.45,0,0,0-.792-2.437,2.808,2.808,0,0,0-2.16-.851,2.877,2.877,0,0,0-2.2.851,3.417,3.417,0,0,0-.8,2.437v7.344h-3.36v-13.3h3.36v1.656a4.642,4.642,0,0,1,1.716-1.356,5.309,5.309,0,0,1,2.292-.493A5.129,5.129,0,0,1,406,310.38Z" fill="#eee"/>
    <path id="Trazado_6" data-name="Trazado 6" d="M414.566,311.833v6.432a1.271,1.271,0,0,0,.324.972,1.592,1.592,0,0,0,1.092.3h1.56v2.832H415.43q-4.248,0-4.248-4.128v-6.408H409.6v-2.76h1.584v-3.288h3.384v3.288h2.976v2.76Z" fill="#eee"/>
    <path id="Trazado_7" data-name="Trazado 7" d="M424.406,305.617l-5.52,2.519v-2.4l5.52-2.857Zm-.936,3.456v13.3h-3.361v-13.3Z" fill="#eee"/>
    <path id="Trazado_8" data-name="Trazado 8" d="M438.133,310.38a5.746,5.746,0,0,1,1.465,4.189v7.8h-3.361v-7.344a3.446,3.446,0,0,0-.792-2.437,2.8,2.8,0,0,0-2.159-.851,2.88,2.88,0,0,0-2.2.851,3.417,3.417,0,0,0-.8,2.437v7.344h-3.361v-13.3h3.361v1.656A4.634,4.634,0,0,1,432,309.373a5.306,5.306,0,0,1,2.292-.493A5.126,5.126,0,0,1,438.133,310.38Z" fill="#eee"/>
  </g>
</svg>
